name ./resultDataOpenSim/trcMotMarkerGrf/sub10/grf-13-05.mot
datacolumns 19
datarows 12
range 0.98000000 1.02400000
endheader

                time	     ground_force_vx	     ground_force_vy	     ground_force_vz	     ground_force_px	     ground_force_py	     ground_force_pz	   l_ground_force_vx	   l_ground_force_vy	   l_ground_force_vz	   l_ground_force_px	   l_ground_force_py	   l_ground_force_pz	     ground_torque_x	     ground_torque_y	     ground_torque_z	   l_ground_torque_x	   l_ground_torque_y	   l_ground_torque_z	
          0.98000000	          0.00000000	          0.00000000	          0.00000000	          0.00000000	          0.00000000	          0.00000000	         86.20910921	        885.06109896	         23.51337195	         -0.00000435	         -0.05000180	         -0.10726437	          0.00000000	          0.00000000	          0.00000000	          0.00000000	         -6.06950882	          0.00000000	
          0.98400000	          0.00000000	          0.00000000	          0.00000000	          0.00000000	          0.00000000	          0.00000000	         94.43850615	        885.44693208	         22.05074026	          0.00014044	         -0.05000100	         -0.10687296	          0.00000000	          0.00000000	          0.00000000	          0.00000000	         -6.10907711	          0.00000000	
          0.98800000	          0.00000000	          0.00000000	          0.00000000	          0.00000000	          0.00000000	          0.00000000	        102.98994545	        883.73757299	         20.44577017	          0.00035512	         -0.05000100	         -0.10644445	          0.00000000	          0.00000000	          0.00000000	          0.00000000	         -6.12494889	          0.00000000	
          0.99200000	          0.00000000	          0.00000000	          0.00000000	          0.00000000	          0.00000000	          0.00000000	        111.79728443	        879.69150235	         18.67867695	          0.00064225	         -0.05000100	         -0.10598765	          0.00000000	          0.00000000	          0.00000000	          0.00000000	         -6.11817577	          0.00000000	
          0.99600000	          0.00000000	          0.00000000	          0.00000000	          0.00000000	          0.00000000	          0.00000000	        120.74195570	        873.15066197	         16.75874559	          0.00099341	         -0.05000097	         -0.10551403	          0.00000000	          0.00000000	          0.00000000	          0.00000000	         -6.09082066	          0.00000000	
          1.00000000	          0.00000000	          0.00000000	          0.00000000	          0.00000000	          0.00000000	          0.00000000	        129.64730917	        864.06648228	         14.72355428	          0.00141888	         -0.05000033	         -0.10502496	          0.00000000	          0.00000000	          0.00000000	          0.00000000	         -6.04531480	          0.00000000	
          1.00400000	          0.00000000	          0.00000000	          0.00000000	          0.00000000	          0.00000000	          0.00000000	        138.28321528	        852.50946836	         12.61428492	          0.00194405	         -0.05000001	         -0.10451647	          0.00000000	          0.00000000	          0.00000000	          0.00000000	         -5.98379292	          0.00000000	
          1.00800000	          0.00000000	          0.00000000	          0.00000000	          0.00000000	          0.00000000	          0.00000000	        146.40839905	        838.64631877	         10.45817917	          0.00256535	         -0.05000000	         -0.10398425	          0.00000000	          0.00000000	          0.00000000	          0.00000000	         -5.90758203	          0.00000000	
          1.01200000	          0.00000000	          0.00000000	          0.00000000	          0.00000000	          0.00000000	          0.00000000	        153.83413443	        822.71707232	          8.27588181	          0.00323923	         -0.04999912	         -0.10343490	          0.00000000	          0.00000000	          0.00000000	          0.00000000	         -5.81693163	          0.00000000	
          1.01600000	          0.00000000	          0.00000000	          0.00000000	          0.00000000	          0.00000000	          0.00000000	        160.45581601	        804.99773048	          6.10120364	          0.00390894	         -0.04999872	         -0.10287145	          0.00000000	          0.00000000	          0.00000000	          0.00000000	         -5.71102245	          0.00000000	
          1.02000000	          0.00000000	          0.00000000	          0.00000000	          0.00000000	          0.00000000	          0.00000000	        166.23341649	        785.71586628	          3.98149484	          0.00453904	         -0.04999813	         -0.10229686	          0.00000000	          0.00000000	          0.00000000	          0.00000000	         -5.58818768	          0.00000000	
          1.02400000	          0.00000000	          0.00000000	          0.00000000	          0.00000000	          0.00000000	          0.00000000	        171.15437706	        765.00335258	          1.95919420	          0.00511740	         -0.04999800	         -0.10171794	          0.00000000	          0.00000000	          0.00000000	          0.00000000	         -5.44623333	          0.00000000	
